<svg width="100" height="100" viewBox="0 0 100 100" fill="none" xmlns="http://www.w3.org/2000/svg">
<rect width="100" height="100" rx="16" fill="url(#paint0_linear_52_64)"/>
<g clip-path="url(#clip0_52_64)">
<path fill-rule="evenodd" clip-rule="evenodd" d="M25.3333 50.0001C25.3338 45.2531 26.7039 40.6072 29.2794 36.6196C31.8548 32.632 35.5261 29.4723 39.8528 27.5195C44.1795 25.5668 48.9777 24.9039 53.6718 25.6105C58.3658 26.3171 62.7563 28.3632 66.3163 31.5031C69.8764 34.6431 72.4548 38.7436 73.7422 43.3127C75.0296 47.8817 74.9713 52.7252 73.5742 57.2619C72.1772 61.7986 69.5008 65.8358 65.8661 68.8891C62.2315 71.9425 57.793 73.8822 53.0833 74.4756V56.1667H59.25C60.0678 56.1667 60.852 55.8419 61.4302 55.2637C62.0085 54.6854 62.3333 53.9012 62.3333 53.0834C62.3333 52.2657 62.0085 51.4814 61.4302 50.9032C60.852 50.3249 60.0678 50.0001 59.25 50.0001H53.0833V43.8334C53.0833 43.0157 53.4082 42.2314 53.9864 41.6532C54.5647 41.0749 55.3489 40.7501 56.1667 40.7501H57.7083C58.5261 40.7501 59.3103 40.4252 59.8886 39.847C60.4668 39.2688 60.7917 38.4845 60.7917 37.6667C60.7917 36.849 60.4668 36.0647 59.8886 35.4865C59.3103 34.9083 58.5261 34.5834 57.7083 34.5834H56.1667C53.7134 34.5834 51.3606 35.558 49.6259 37.2927C47.8912 39.0274 46.9167 41.3802 46.9167 43.8334V50.0001H40.75C39.9323 50.0001 39.148 50.3249 38.5698 50.9032C37.9915 51.4814 37.6667 52.2657 37.6667 53.0834C37.6667 53.9012 37.9915 54.6854 38.5698 55.2637C39.148 55.8419 39.9323 56.1667 40.75 56.1667H46.9167V74.4756C40.9554 73.7245 35.4732 70.8235 31.4992 66.317C27.5253 61.8105 25.3328 56.0085 25.3333 50.0001ZM50 80.8334C67.0293 80.8334 80.8333 67.0293 80.8333 50.0001C80.8333 32.9708 67.0293 19.1667 50 19.1667C32.9708 19.1667 19.1667 32.9708 19.1667 50.0001C19.1667 67.0293 32.9708 80.8334 50 80.8334Z" fill="#68733C"/>
</g>
<defs>
<linearGradient id="paint0_linear_52_64" x1="38.5965" y1="147.368" x2="123.264" y2="132.826" gradientUnits="userSpaceOnUse">
<stop stop-color="#ACBF60"/>
<stop offset="1" stop-color="#FAFFE6"/>
</linearGradient>
<clipPath id="clip0_52_64">
<rect width="74" height="74" fill="white" transform="translate(13 13)"/>
</clipPath>
</defs>
</svg>
