<svg width="100" height="100" viewBox="0 0 100 100" fill="none" xmlns="http://www.w3.org/2000/svg">
<rect width="100" height="100" rx="16" fill="url(#paint0_linear_52_48)"/>
<path d="M22.25 46.9167C22.25 35.2894 22.25 29.4742 25.8637 25.8637C29.4742 22.25 35.2894 22.25 46.9167 22.25H53.0833C64.7106 22.25 70.5257 22.25 74.1363 25.8637C77.75 29.4742 77.75 35.2894 77.75 46.9167V53.0833C77.75 64.7106 77.75 70.5257 74.1363 74.1363C70.5257 77.75 64.7106 77.75 53.0833 77.75H46.9167C35.2894 77.75 29.4742 77.75 25.8637 74.1363C22.25 70.5257 22.25 64.7106 22.25 53.0833V46.9167Z" stroke="#BF608A" stroke-width="6"/>
<path d="M65.5 36.125C65.5 37.0225 64.7725 37.75 63.875 37.75C62.9775 37.75 62.25 37.0225 62.25 36.125C62.25 35.2275 62.9775 34.5 63.875 34.5C64.7725 34.5 65.5 35.2275 65.5 36.125Z" stroke="#BF608A" stroke-width="6"/>
<path d="M50 59.25C55.1086 59.25 59.25 55.1086 59.25 50C59.25 44.8914 55.1086 40.75 50 40.75C44.8914 40.75 40.75 44.8914 40.75 50C40.75 55.1086 44.8914 59.25 50 59.25Z" stroke="#BF608A" stroke-width="6"/>
<defs>
<linearGradient id="paint0_linear_52_48" x1="38.5965" y1="147.368" x2="123.264" y2="132.826" gradientUnits="userSpaceOnUse">
<stop stop-color="#FF80B8"/>
<stop offset="1" stop-color="#FAFFE6"/>
</linearGradient>
</defs>
</svg>
