<svg width="78" height="78" viewBox="0 0 78 78" fill="none" xmlns="http://www.w3.org/2000/svg">
<g filter="url(#filter0_d_5_62)">
<circle cx="37" cy="35" r="35" fill="#FAFFE6"/>
</g>
<rect width="34" height="34" transform="translate(20 18)" fill="#FAFFE6"/>
<path fill-rule="evenodd" clip-rule="evenodd" d="M27.4132 24.5195L28.2144 27.5625L30.7325 37.1356C30.9707 38.0415 31.4057 38.8838 32.0064 39.6025C32.6072 40.3213 33.3589 40.8988 34.2082 41.294C35.0574 41.6892 35.9833 41.8924 36.9201 41.8892C37.8568 41.8859 38.7813 41.6762 39.6278 41.2751L49.2285 36.7276C50.3193 36.2111 51.2411 35.3954 51.8866 34.3756C52.5321 33.3558 52.8749 32.1737 52.875 30.9668V28.625C52.875 27.4978 52.4272 26.4168 51.6302 25.6198C50.8332 24.8228 49.7522 24.375 48.625 24.375H30.6815L30.3628 23.2381C30.1143 22.3433 29.5797 21.5546 28.8406 20.9924C28.1015 20.4302 27.1986 20.1255 26.27 20.125H22.5938C22.1711 20.125 21.7657 20.2929 21.4668 20.5918C21.1679 20.8907 21 21.2961 21 21.7188C21 22.1414 21.1679 22.5468 21.4668 22.8457C21.7657 23.1446 22.1711 23.3125 22.5938 23.3125H26.27C26.5023 23.3124 26.7282 23.3883 26.9132 23.5288C27.0981 23.6693 27.232 23.8665 27.2942 24.0902L27.4132 24.5195ZM38.2635 38.3957L47.8643 33.8483C48.4098 33.5899 48.8708 33.1819 49.1936 32.6718C49.5163 32.1617 49.6876 31.5704 49.6875 30.9668V28.625C49.6875 28.3432 49.5756 28.073 49.3763 27.8737C49.177 27.6744 48.9068 27.5625 48.625 27.5625H31.5103L33.8138 36.326C33.9331 36.7788 34.1508 37.1997 34.4512 37.5588C34.7517 37.9179 35.1276 38.2064 35.5522 38.4038C35.9768 38.6012 36.4397 38.7026 36.9079 38.7009C37.3762 38.6991 37.8383 38.5942 38.2614 38.3936M46.5 49.3438C47.4863 49.3438 48.4322 48.952 49.1296 48.2546C49.827 47.5572 50.2188 46.6113 50.2188 45.625C50.2188 44.6387 49.827 43.6928 49.1296 42.9954C48.4322 42.298 47.4863 41.9062 46.5 41.9062C45.5137 41.9062 44.5678 42.298 43.8704 42.9954C43.173 43.6928 42.7812 44.6387 42.7812 45.625C42.7812 46.6113 43.173 47.5572 43.8704 48.2546C44.5678 48.952 45.5137 49.3438 46.5 49.3438ZM31.0938 45.625C31.0938 46.1134 30.9976 46.5969 30.8107 47.0481C30.6238 47.4993 30.3499 47.9092 30.0046 48.2546C29.6592 48.5999 29.2493 48.8738 28.7981 49.0607C28.3469 49.2476 27.8634 49.3438 27.375 49.3438C26.8866 49.3438 26.4031 49.2476 25.9519 49.0607C25.5007 48.8738 25.0908 48.5999 24.7454 48.2546C24.4001 47.9092 24.1262 47.4993 23.9393 47.0481C23.7524 46.5969 23.6562 46.1134 23.6562 45.625C23.6562 44.6387 24.048 43.6928 24.7454 42.9954C25.4428 42.298 26.3887 41.9062 27.375 41.9062C28.3613 41.9062 29.3072 42.298 30.0046 42.9954C30.702 43.6928 31.0938 44.6387 31.0938 45.625Z" fill="#BF608A"/>
<defs>
<filter id="filter0_d_5_62" x="0" y="0" width="78" height="78" filterUnits="userSpaceOnUse" color-interpolation-filters="sRGB">
<feFlood flood-opacity="0" result="BackgroundImageFix"/>
<feColorMatrix in="SourceAlpha" type="matrix" values="0 0 0 0 0 0 0 0 0 0 0 0 0 0 0 0 0 0 127 0" result="hardAlpha"/>
<feOffset dx="2" dy="4"/>
<feGaussianBlur stdDeviation="2"/>
<feComposite in2="hardAlpha" operator="out"/>
<feColorMatrix type="matrix" values="0 0 0 0 0 0 0 0 0 0 0 0 0 0 0 0 0 0 0.25 0"/>
<feBlend mode="normal" in2="BackgroundImageFix" result="effect1_dropShadow_5_62"/>
<feBlend mode="normal" in="SourceGraphic" in2="effect1_dropShadow_5_62" result="shape"/>
</filter>
</defs>
</svg>
